<svg xmlns="http://www.w3.org/2000/svg" width="120" height="120" viewBox="0 0 120 120"><g fill="#231F20"><path d="M101.048 54.639c-.844-2.317-3.169-3.874-5.785-3.874-.738 0-1.458.126-2.14.374-.611.222-1.324.644-1.994 1.171a7.026 7.026 0 0 0-6.356-4.069c-.816 0-1.622.143-2.394.424a6.96 6.96 0 0 0-3.33 2.545L69.728 25.6c-1.035-2.845-3.558-4.683-6.426-4.683-.78 0-1.558.139-2.312.413-3.622 1.319-5.407 5.241-4.077 8.894l.716 2.136a6.824 6.824 0 0 0-6.57-1.028c-1.887.687-3.319 2.063-4.035 3.877-.673 1.707-.666 3.684.03 5.596L58.65 70.664c-.609.689-1.487 1.862-2.475 3.738-3.413 6.492-1.001 18.314 7.919 24.898 6.378 4.707 12.258 6.898 18.503 6.898 3.66 0 7.47-.738 11.645-2.258 11.868-4.32 13.671-11.721 14.499-18.931.799-6.935-7.345-29.416-7.693-30.37zm4.713 30.029c-.78 6.788-2.263 12.711-12.544 16.453-3.841 1.398-7.314 2.078-10.619 2.078-5.648 0-10.806-1.947-16.722-6.312-5.326-3.931-10.719-14.101-7.045-21.088a21.09 21.09 0 0 1 1.092-1.857l3.788 9.752a1.499 1.499 0 1 0 2.796-1.086L49.86 39.749c-.435-1.193-.451-2.416-.047-3.44.401-1.018 1.187-1.765 2.27-2.159 2.184-.796 4.424.445 5.321 2.908l10.517 25.968a1.499 1.499 0 0 0 1.911.839 1.509 1.509 0 0 0 .901-1.892l-10.99-32.771c-.767-2.107.231-4.374 2.272-5.117 1.994-.726 4.131.134 4.893 2.224L78.193 57h-.002c.283 1 1.141 1.498 1.919 1.215s.89-.826.89-1.605v-.004c0-1.002-.304-2.087.147-3.054a3.997 3.997 0 0 1 2.271-2.068 4.057 4.057 0 0 1 1.38-.243c1.675 0 3.212 1.059 3.785 2.634l2.274 6.107c.012.034.143.068.143.101V60.092s-.002.001 0 .003v.012c0 .001-.011.003-.01.004a1.482 1.482 0 0 0 1.854.762c.601-.216 1.156-.778 1.156-1.381v-.004-.002c0-.177-.195-.358-.26-.534l-1.485-3.619c.406-.445 1.256-1.142 1.895-1.374a3.244 3.244 0 0 1 1.113-.193c1.339 0 2.559.782 2.967 1.9 2.296 6.311 8.127 23.823 7.531 29.002zM40.061 16.814c-.429-.429-.824-.558-1.385-.325S38 17.268 38 17.875V21H11.5c-1 0-2 1-2 2s1 2 2 2H38v3.875c0 .606.115 1.153.676 1.386s.956.104 1.385-.325L46 24.375c.586-.586.586-1.414 0-2l-5.939-5.561zM30.061 30.814c-.429-.429-.824-.558-1.385-.325S28 31.268 28 31.875V35H11.5c-1 0-2 1-2 2s1 2 2 2H28v3.875c0 .606.115 1.153.676 1.386s.956.104 1.385-.325L36 38.375c.586-.586.586-1.414 0-2l-5.939-5.561z"/></g></svg>