<svg xmlns="http://www.w3.org/2000/svg" width="120" height="120" viewBox="0 0 120 120"><g fill="#231F20"><path d="M92.68 19.083a104.837 104.837 0 0 0-4.938-7.649c-.382-.539-.806-.775-1.499-.702-.694.074-.946.58-1.083 1.17a6928.05 6928.05 0 0 1-1.009 4.386 107.701 107.701 0 0 0-55.299 1.86c-1.073.323-1.828 1.621-1.515 2.571.313.949 1.646 1.566 2.672 1.258a103.713 103.713 0 0 1 53.245-1.791l-.785 3.411c-.136.592-.143 1.149.36 1.507s.922.33 1.453.021a93.314 93.314 0 0 1 7.751-4.021c.787-.363 1.089-1.263.647-2.021zM81.003 67.365c-.846-.308-1.872-.394-2.51-.416a6.955 6.955 0 0 0-.397-4.845 6.953 6.953 0 0 0-3.949-3.62 7.076 7.076 0 0 0-4.645-.049 6.888 6.888 0 0 0-.452-2.742c-.662-1.696-1.998-2.984-3.761-3.625-1.769-.643-3.697-.504-5.268.281l5.726-17.673c1.462-4.018-.265-8.077-4.016-9.444a7.031 7.031 0 0 0-2.407-.434c-2.97 0-5.615 1.997-6.75 5.117L42.266 60.239c-.914.137-2.331.473-4.299 1.278-6.79 2.781-12.541 13.389-9.938 24.163 2.896 11.998 8.91 18.856 20.111 22.933 3.145 1.145 6.1 1.725 8.781 1.725 6.644 0 10.803-3.411 14.493-6.905 5.07-4.8 13.282-27.257 13.629-28.212 1.093-3.004-.794-6.675-4.04-7.856zm1.222 6.83c-2.298 6.312-9.088 23.476-12.873 27.059-3.387 3.207-6.886 6.084-12.431 6.084-2.331 0-4.94-.52-7.756-1.544-10.275-3.739-15.555-9.771-18.221-20.817-1.554-6.434.852-17.689 8.159-20.683a21.742 21.742 0 0 1 2.029-.724l-3.367 9.907a1.5 1.5 0 1 0 2.84.965l14.798-43.533c.873-2.399 3.126-3.652 5.302-2.859 2.215.807 3.129 3.109 2.206 5.65l-8.637 26.653a1.5 1.5 0 0 0 2.731 1.202l2.252-3.969c.041-.073.076-.149.105-.228.758-2.086 2.9-3.2 4.899-2.472.954.347 1.644 1.003 1.992 1.896.354.907.334 1.996-.055 3.066l-1.023 2.812a4.015 4.015 0 0 1 6.576-1.601c.465 0 .925.082 1.367.243 1.004.365 1.806 1.101 2.257 2.068s.499 2.055.134 3.059l-2.223 6.108a1.5 1.5 0 0 0 2.818 1.026l1.306-3.586c.173-.02.405-.035.698-.035.72 0 1.471.097 1.868.241 1.684.614 2.776 2.563 2.249 4.012z"/></g></svg>